<?xml version="1.0" encoding="UTF-8"?>
<svg id="_レイヤー_1" data-name="レイヤー 1" xmlns="http://www.w3.org/2000/svg" viewBox="0 0 249.52 243.27">
  <defs>
    <style>
      .cls-1 {
        fill: #231815;
      }

      .cls-1, .cls-2, .cls-3, .cls-4 {
        stroke-miterlimit: 10;
      }

      .cls-1, .cls-2, .cls-4 {
        stroke: #231815;
      }

      .cls-2, .cls-3 {
        fill: none;
        stroke-width: 3px;
      }

      .cls-3 {
        stroke: #fff;
      }

      .cls-4 {
        fill: #fff;
      }
    </style>
  </defs>
  <rect class="cls-4" x=".5" y="162.01" width="82.76" height="80.76"/>
  <rect class="cls-1" x=".5" y="81.26" width="82.76" height="80.76"/>
  <rect class="cls-4" x=".5" y=".5" width="82.76" height="80.76"/>
  <rect class="cls-1" x="83.26" y=".5" width="82.76" height="80.76"/>
  <rect class="cls-4" x="166.25" y=".5" width="82.76" height="80.76"/>
  <rect class="cls-1" x="166.25" y="81.26" width="82.76" height="80.76"/>
  <rect class="cls-4" x="83.26" y="81.26" width="82.76" height="80.76"/>
  <rect class="cls-1" x="83.26" y="162.01" width="82.76" height="80.76"/>
  <rect class="cls-4" x="166.25" y="162.01" width="82.76" height="80.76"/>
  <path class="cls-3" d="M9.85,185.68c21.14-4.86,151.25-36.17,162.69-106.42,2.86-17.58-.8-43.15-7.73-44.29-8.47-1.4-25.95,33.07-32.75,67.69-5.36,27.27-3.79,53.1-18.56,90.57-1.62,4.11-6.27,15.53-10.83,15.09-6.98-.67-3.29-28.1-20.88-55.1-4.46-6.84-12.6-18.99-27.85-25.66-19.97-8.74-45-4.96-46.41,1.51-1.55,7.11,25.26,18.24,34.03,21.89,24.7,10.26,72.95,22.36,153.15-2.26"/>
  <path class="cls-2" d="M33.41,170c21.14-4.86,151.25-36.17,162.69-106.42,2.86-17.58-.8-43.15-7.73-44.29-8.47-1.4-25.95,33.07-32.75,67.69-5.36,27.27-3.79,53.1-18.56,90.57-1.62,4.11-6.27,15.53-10.83,15.09-6.98-.67-3.29-28.1-20.88-55.1-4.46-6.84-12.6-18.99-27.85-25.66-19.97-8.74-45-4.96-46.41,1.51-1.55,7.11,25.26,18.24,34.03,21.89,24.7,10.26,72.95,22.36,153.15-2.26"/>
</svg>