<?xml version="1.0" encoding="UTF-8"?>
<svg id="_レイヤー_1" data-name="レイヤー 1" xmlns="http://www.w3.org/2000/svg" xmlns:xlink="http://www.w3.org/1999/xlink" viewBox="0 0 550.34 406.11">
  <defs>
    <style>
      .cls-1 {
        fill: #9e9e9f;
      }

      .cls-1, .cls-2, .cls-3, .cls-4, .cls-5 {
        stroke: #231815;
        stroke-miterlimit: 10;
      }

      .cls-6, .cls-7, .cls-8 {
        stroke-width: 0px;
      }

      .cls-6, .cls-9 {
        fill: #231815;
      }

      .cls-10 {
        clip-path: url(#clippath);
      }

      .cls-7, .cls-3, .cls-5 {
        fill: none;
      }

      .cls-2 {
        fill: #595757;
      }

      .cls-3 {
        stroke-width: 3px;
      }

      .cls-9 {
        font-family: HiraKakuStd-W8-83pv-RKSJ-H, 'Hiragino Kaku Gothic Std';
        font-size: 37.22px;
      }

      .cls-11 {
        opacity: .57;
      }

      .cls-4 {
        fill: #009fe8;
        stroke-width: 5px;
      }

      .cls-5 {
        stroke-width: 4px;
      }

      .cls-8 {
        fill: #fff;
      }
    </style>
    <clipPath id="clippath">
      <path class="cls-7" d="M268.08,114.91c3.85,27.07,5.78,40.6,5.82,48.23.08,16.29-2.11,14.03-1.88,27.43.34,20.13,5.31,26.75,10.26,52.68,2.34,12.27,8.19,42.92,1.73,45.47-6.99,2.76-19.7-30.89-34.07-28.87-12.02,1.69-7.13,25.8-30.81,50.78-21.13,22.28-33.42,30.06-33.42,30.06-4.08,2.58-7.71,4.49-10.35,9.06-4.21,7.27-1.42,13.48-5.96,26.88-2.27,6.69-3.79,7.58-4.76,7.87-4.1,1.21-9.81-4.8-15.88-11.19-5.45-5.73-6.3-8.03-10.1-9.27-3.54-1.16-5.07.08-11.4.32-6.58.25-13.65.52-15.88-2.49-3.47-4.68,6.46-15,15.37-32.15,1.93-3.72,5.67-14.65,13.06-36.38,9.28-27.26,12.39-37.69,14.33-51.64,3.08-22.26-.55-26.74-2.6-28.47-5.05-4.27-12.23-1.78-26.31.87-16.58,3.11-48.77,7.57-50.88,2.17-2.56-6.56,40.5-24.27,37.39-36.51-.97-3.82-5.72-4.29-21.1-10.16-24.71-9.42-37.44-14.44-40.75-23.7-2.6-7.26,2.15-12.8,9.85-28.27,16.3-32.76,9.2-36.44,22.19-59.85,7.89-14.22,18.97-34.16,42.44-45.04,16.24-7.52,35.48-9.35,49.22-5.77,11.22,2.92,19.2,7.07,19.2,7.07,6.98,3.63,8.06,5.53,13.56,7.16,6.23,1.84,8.91.61,18.34,1.21,0,0,6.01.39,16.89,2.6,18.79,3.82,47.22,16.85,45.76,24.68-.94,5.02-13.1,2.28-23.31,13.54-1.61,1.77-7.99,8.8-7.2,17.29.46,5.01,3.07,6.78,6.12,12.9,2.81,5.64,3.51,9.95,5.15,21.48Z"/>
    </clipPath>
  </defs>
  <g>
    <path class="cls-4" d="M292.2,51.31c-6.71-7.24-22.87-22.62-48.57-28.97-14.49-3.58-27.07-3.07-35.52-1.99,16.82,19.78,33.65,39.55,50.47,59.33.32-3.2,1.51-10.59,7.2-17.29,9.76-11.51,24.43-11.16,26.41-11.08Z"/>
    <path class="cls-4" d="M273.79,189.73c5.65-35.51,2.99-71.93-12.24-104.12C244.08,48.68,199.87-4.27,147.37,3.21c-50.81,7.24-85.69,67.06-85.87,113.56-9.08,5.53-14.81,13.61-14.81,22.61,0,16.68,19.67,30.21,43.94,30.21.39,0,.77-.01,1.15-.02,6.95,3.45,14.44,6.16,21.72,9.33l-48.26,40.39,84.13-3.93c11.43,38.13-17.3,83.49-24.83,113.22-.29.33-.56.68-.8,1.07l-14.74,23.45c-3.58,5.7.52,13.12,7.26,13.11l21.24-.03,19.2,18.46c4.86,4.67,12.95,2.16,14.31-4.44l5.96-28.96c.16-.8.21-1.57.16-2.33,27.2-15.21,54.33-47.25,73.36-86.33,8.9,8.78,17.8,17.55,26.7,26.33,3.15,2.83,5.65,3.9,7.5,3.22,7.84-2.88,4.2-37-10.91-102.38Z"/>
  </g>
  <g>
    <path class="cls-1" d="M125.65,217.69c-18.42-5.2-36.84-10.39-55.26-15.59-.91-.26-1.87-.08-2.66.48-6.37,4.51-12.75,9.02-19.12,13.53-2.61,1.84-2.02,6.37.93,7.27,19.47,5.93,38.94,11.87,58.41,17.8,1.11.34,2.29.03,3.16-.83,5.32-5.25,10.64-10.49,15.97-15.74,2.15-2.12,1.31-6.14-1.44-6.92Z"/>
    <path class="cls-1" d="M108.05,241.16c-19.8-5.25-39.61-10.5-59.41-15.75-2.61-.69-4.48-3.53-4.48-6.81v-36.19c0-4.42,3.31-7.72,6.84-6.82,19.8,5.1,39.61,10.2,59.41,15.3,2.63.68,4.51,3.52,4.51,6.82v36.64c0,4.44-3.34,7.74-6.87,6.81Z"/>
    <path class="cls-2" d="M80.4,208.55c.16-1.19.85-2.21,1.86-2.93-.75-.42-1.6-.72-2.54-.84-.63-.09-1.26-.09-1.85-.02-.55-.23-1.15-.39-1.79-.48-3.3-.45-6.27,1.34-6.64,3.99s2.02,5.18,5.32,5.63c.63.09,1.26.09,1.85.02.55.23,1.15.39,1.79.48,1.82.25,3.54-.18,4.78-1.07-1.89-1.05-3.04-2.88-2.78-4.79Z"/>
    <path class="cls-2" d="M81.89,200.71c-.59-.5-1.85-.32-2.82.42s-1.28,1.75-.69,2.25,1.85.32,2.82-.42c.97-.74,1.28-1.75.69-2.25Z"/>
  </g>
  <g>
    <ellipse class="cls-6" cx="158.27" cy="87.71" rx="13.1" ry="22.45"/>
    <circle class="cls-8" cx="151.72" cy="81.16" r="6.55"/>
    <ellipse class="cls-6" cx="99.33" cy="88.31" rx="13.1" ry="22.45"/>
    <circle class="cls-8" cx="92.78" cy="81.16" r="6.55"/>
    <g>
      <g>
        <ellipse class="cls-3" cx="99.78" cy="87.71" rx="27.2" ry="27.69"/>
        <ellipse class="cls-5" cx="163.66" cy="88.91" rx="27.2" ry="27.69" transform="translate(-1.56 2.94) rotate(-1.02)"/>
        <path class="cls-6" d="M138.09,99.81c-.43-.5-2.87-3.2-6.7-3.15-3.68.05-6,2.62-6.46,3.15v-2.8c.77-.66,3.1-2.46,6.46-2.5,3.51-.04,5.93,1.86,6.69,2.5v2.8Z"/>
      </g>
      <path class="cls-6" d="M259.22,89.52c-2.42-2.71-4.94-4.52-6.64-4.93v-.1h-61.37v6.4h61.16c.77,1.26,1.75,2.59,2.9,3.88,3.54,3.97,7.3,6,8.38,4.55,1.09-1.45-.9-5.84-4.44-9.81Z"/>
    </g>
  </g>
  <g>
    <path class="cls-3" d="M49.16,143.08c.74,6.14,2.88,10.11,5.38,12.77,14.35,15.29,56.3,4.59,105.06-24.93"/>
    <ellipse class="cls-6" cx="164.1" cy="130.93" rx="3.04" ry="5.15" transform="translate(-39.52 182.03) rotate(-52.67)"/>
  </g>
  <g class="cls-11">
    <g class="cls-10">
      <text class="cls-9" transform="translate(0 60.01) scale(.91 1)"><tspan x="0" y="0">1101100101001</tspan><tspan x="0" y="130.28">1000010010100</tspan><tspan x="0" y="260.56">1001010100101</tspan></text>
    </g>
  </g>
  <path class="cls-8" d="M218.16,159.26c44.32,38.15,12.28,162.31-37.49,176.37-10.52,2.97-26.59,2.37-34.08-6.82-16.21-19.87,26.63-56.72,15.34-101.39-9.16-36.21-45.51-44.43-40.9-60.49,5.66-19.72,67.75-32.96,97.13-7.67Z"/>
</svg>