<?xml version="1.0" encoding="UTF-8"?>
<svg id="_レイヤー_1" data-name=" レイヤー 1" xmlns="http://www.w3.org/2000/svg" xmlns:xlink="http://www.w3.org/1999/xlink" version="1.1" viewBox="0 0 315 406.1">
  <defs>
    <style>
      .cls-1 {
        fill: #9e9e9f;
      }

      .cls-1, .cls-2, .cls-3, .cls-4 {
        stroke-miterlimit: 10;
      }

      .cls-1, .cls-2, .cls-3, .cls-4, .cls-5 {
        stroke: #231815;
      }

      .cls-6, .cls-7, .cls-8 {
        stroke-width: 0px;
      }

      .cls-6, .cls-9 {
        fill: #231815;
      }

      .cls-10 {
        clip-path: url(#clippath);
      }

      .cls-7, .cls-3, .cls-5 {
        fill: none;
      }

      .cls-2 {
        fill: #595757;
      }

      .cls-3 {
        stroke-width: 3px;
      }

      .cls-11 {
        opacity: .6;
      }

      .cls-4 {
        fill: #009fe8;
        stroke-width: 5px;
      }

      .cls-5 {
        stroke-miterlimit: 10;
        stroke-width: 4px;
      }

      .cls-12, .cls-9 {
        isolation: isolate;
      }

      .cls-9 {
        font-family: HiraKakuStd-W8-83pv-RKSJ-H, 'Hiragino Kaku Gothic Std';
        font-size: 37.2px;
      }

      .cls-8 {
        fill: #fff;
      }
    </style>
    <clipPath id="clippath">
      <path class="cls-7" d="M268.1,114.9c3.9,27.1,5.8,40.6,5.8,48.2,0,16.3-2.1,14-1.9,27.4.3,20.1,5.3,26.8,10.3,52.7,2.3,12.3,8.2,42.9,1.7,45.5-7,2.8-19.7-30.9-34.1-28.9-12,1.7-7.1,25.8-30.8,50.8-21.1,22.3-33.4,30.1-33.4,30.1-4.1,2.6-7.7,4.5-10.4,9.1-4.2,7.3-1.4,13.5-6,26.9-2.3,6.7-3.8,7.6-4.8,7.9-4.1,1.2-9.8-4.8-15.9-11.2-5.4-5.7-6.3-8-10.1-9.3-3.5-1.2-5.1,0-11.4.3-6.6.2-13.7.5-15.9-2.5-3.5-4.7,6.5-15,15.4-32.1,1.9-3.7,5.7-14.6,13.1-36.4,9.3-27.3,12.4-37.7,14.3-51.6,3.1-22.3-.6-26.7-2.6-28.5-5.1-4.3-12.2-1.8-26.3.9-16.6,3.1-48.8,7.6-50.9,2.2-2.6-6.6,40.5-24.3,37.4-36.5-1-3.8-5.7-4.3-21.1-10.2-24.7-9.4-37.4-14.4-40.8-23.7-2.6-7.3,2.2-12.8,9.8-28.3,16.3-32.8,9.2-36.4,22.2-59.8,7.9-14.2,19-34.2,42.4-45,16.2-7.5,35.5-9.4,49.2-5.8,11.2,2.9,19.2,7.1,19.2,7.1,7,3.6,8.1,5.5,13.6,7.2,6.2,1.8,8.9.6,18.3,1.2,0,0,6,.4,16.9,2.6,18.8,3.8,47.2,16.9,45.8,24.7-.9,5-13.1,2.3-23.3,13.5-1.6,1.8-8,8.8-7.2,17.3.5,5,3.1,6.8,6.1,12.9,2.8,5.6,3.5,9.9,5.1,21.5h0Z"/>
    </clipPath>
  </defs>
  <g>
    <path class="cls-4" d="M292.2,51.3c-6.7-7.2-22.9-22.6-48.6-29-14.5-3.6-27.1-3.1-35.5-2,16.8,19.8,33.7,39.5,50.5,59.3.3-3.2,1.5-10.6,7.2-17.3,9.8-11.5,24.4-11.2,26.4-11.1h0Z"/>
    <path class="cls-4" d="M273.8,189.7c5.6-35.5,3-71.9-12.2-104.1C244.1,48.7,199.9-4.3,147.4,3.2c-50.8,7.2-85.7,67.1-85.9,113.6-9.1,5.5-14.8,13.6-14.8,22.6,0,16.7,19.7,30.2,43.9,30.2s.8,0,1.2,0c6.9,3.4,14.4,6.2,21.7,9.3l-48.3,40.4,84.1-3.9c11.4,38.1-17.3,83.5-24.8,113.2-.3.3-.6.7-.8,1.1l-14.7,23.5c-3.6,5.7.5,13.1,7.3,13.1h21.2s19.2,18.4,19.2,18.4c4.9,4.7,12.9,2.2,14.3-4.4l6-29c.2-.8.2-1.6.2-2.3,27.2-15.2,54.3-47.2,73.4-86.3,8.9,8.8,17.8,17.5,26.7,26.3,3.1,2.8,5.6,3.9,7.5,3.2,7.8-2.9,4.2-37-10.9-102.4h0Z"/>
  </g>
  <g>
    <path class="cls-1" d="M125.7,217.7c-18.4-5.2-36.8-10.4-55.3-15.6-.9-.3-1.9,0-2.7.5-6.4,4.5-12.8,9-19.1,13.5-2.6,1.8-2,6.4.9,7.3,19.5,5.9,38.9,11.9,58.4,17.8,1.1.3,2.3,0,3.2-.8,5.3-5.2,10.6-10.5,16-15.7,2.1-2.1,1.3-6.1-1.4-6.9h0Z"/>
    <path class="cls-1" d="M108.1,241.2c-19.8-5.2-39.6-10.5-59.4-15.8-2.6-.7-4.5-3.5-4.5-6.8v-36.2c0-4.4,3.3-7.7,6.8-6.8,19.8,5.1,39.6,10.2,59.4,15.3,2.6.7,4.5,3.5,4.5,6.8v36.6c0,4.4-3.3,7.7-6.9,6.8Z"/>
    <path class="cls-2" d="M80.4,208.6c.2-1.2.8-2.2,1.9-2.9-.8-.4-1.6-.7-2.5-.8-.6,0-1.3,0-1.8,0-.6-.2-1.2-.4-1.8-.5-3.3-.4-6.3,1.3-6.6,4s2,5.2,5.3,5.6c.6,0,1.3,0,1.8,0,.6.2,1.2.4,1.8.5,1.8.2,3.5-.2,4.8-1.1-1.9-1.1-3-2.9-2.8-4.8h0Z"/>
    <path class="cls-2" d="M81.9,200.7c-.6-.5-1.8-.3-2.8.4s-1.3,1.8-.7,2.2,1.8.3,2.8-.4,1.3-1.8.7-2.2Z"/>
  </g>
  <g>
    <ellipse class="cls-6" cx="158.3" cy="87.7" rx="13.1" ry="22.5"/>
    <circle class="cls-8" cx="151.7" cy="81.2" r="6.6"/>
    <ellipse class="cls-6" cx="99.3" cy="88.3" rx="13.1" ry="22.4"/>
    <circle class="cls-8" cx="92.8" cy="81.2" r="6.6"/>
    <g>
      <g>
        <ellipse class="cls-3" cx="99.8" cy="87.7" rx="27.2" ry="27.7"/>
        <ellipse class="cls-5" cx="163.7" cy="88.9" rx="27.2" ry="27.7" transform="translate(-1.6 2.9) rotate(-1)"/>
        <path class="cls-6" d="M138.1,99.8c-.4-.5-2.9-3.2-6.7-3.2-3.7,0-6,2.6-6.5,3.2v-2.8c.8-.7,3.1-2.5,6.5-2.5,3.5,0,5.9,1.9,6.7,2.5v2.8h0Z"/>
      </g>
      <path class="cls-6" d="M259.2,89.5c-2.4-2.7-4.9-4.5-6.6-4.9h0c0,0-61.4,0-61.4,0v6.4h61.2c.8,1.3,1.8,2.6,2.9,3.9,3.5,4,7.3,6,8.4,4.6,1.1-1.4-.9-5.8-4.4-9.8h0Z"/>
    </g>
  </g>
  <g>
    <path class="cls-3" d="M49.2,143.1c.7,6.1,2.9,10.1,5.4,12.8,14.3,15.3,56.3,4.6,105.1-24.9"/>
    <ellipse class="cls-6" cx="164.1" cy="130.9" rx="3" ry="5.1" transform="translate(-39.5 182) rotate(-52.7)"/>
  </g>
  <g class="cls-11">
    <g class="cls-10">
      <g class="cls-12">
        <text class="cls-9" transform="translate(0 60) scale(.9 1)"><tspan x="0" y="0">1101100101001</tspan></text>
        <text class="cls-9" transform="translate(0 190.3) scale(.9 1)"><tspan x="0" y="0">1000010010100</tspan></text>
        <text class="cls-9" transform="translate(0 320.6) scale(.9 1)"><tspan x="0" y="0">1001010100101</tspan></text>
      </g>
    </g>
  </g>
  <path class="cls-8" d="M218.2,159.3c44.3,38.2,12.3,162.3-37.5,176.4-10.5,3-26.6,2.4-34.1-6.8-16.2-19.9,26.6-56.7,15.3-101.4-9.2-36.2-45.5-44.4-40.9-60.5,5.7-19.7,67.8-33,97.1-7.7h0Z"/>
</svg>