<?xml version="1.0" encoding="UTF-8"?>
<svg id="_レイヤー_1" data-name="レイヤー 1" xmlns="http://www.w3.org/2000/svg" viewBox="0 0 277.63 389.72">
  <defs>
    <style>
      .cls-1, .cls-2, .cls-3, .cls-4, .cls-5, .cls-6, .cls-7, .cls-8, .cls-9, .cls-10, .cls-11, .cls-12, .cls-13, .cls-14, .cls-15, .cls-16 {
        stroke-width: 0px;
      }

      .cls-1, .cls-17 {
        fill: #231815;
      }

      .cls-2 {
        fill: #595757;
      }

      .cls-3 {
        fill: #009844;
      }

      .cls-4 {
        fill: #c79f62;
      }

      .cls-5 {
        fill: #e3007f;
      }

      .cls-6 {
        fill: #888;
      }

      .cls-7 {
        fill: #fff000;
      }

      .cls-18 {
        fill: #b4b4b5;
        stroke: #231815;
        stroke-miterlimit: 10;
      }

      .cls-8 {
        fill: #dbdcdc;
      }

      .cls-9 {
        fill: #e50012;
      }

      .cls-10 {
        fill: #b28146;
      }

      .cls-11 {
        fill: #009fe8;
      }

      .cls-12 {
        fill: #c8bb9b;
      }

      .cls-13 {
        fill: #1d2087;
      }

      .cls-17 {
        font-family: HiraKakuStd-W8-83pv-RKSJ-H, 'Hiragino Kaku Gothic Std';
        font-size: 28.45px;
      }

      .cls-14 {
        fill: #fff;
      }

      .cls-15 {
        fill: #422b35;
      }

      .cls-16 {
        fill: #762530;
      }
    </style>
  </defs>
  <rect class="cls-2" x="0" y="1.95" width="277.62" height="387.52"/>
  <rect class="cls-4" x="0" y="291.88" width="277.62" height="72.08"/>
  <rect class="cls-10" x="0" y="249.06" width="277.62" height="42.82"/>
  <rect class="cls-12" x="0" y="364.03" width="277.62" height="25.62"/>
  <rect class="cls-1" x="46.14" y="319.82" width="1.91" height="44.13"/>
  <rect class="cls-1" x="140.21" y="319.82" width="1.91" height="44.13"/>
  <rect class="cls-1" x="232.82" y="318.87" width="1.91" height="44.13"/>
  <rect class="cls-1" x="137.86" y="180.06" width="1.91" height="277.63" transform="translate(457.68 180.06) rotate(90)"/>
  <g>
    <path class="cls-6" d="M179.56,363.96c-1.65,0-2.99,1.99-2.99,4.45v21.31h5.99v-21.31c0-2.46-1.34-4.45-2.99-4.45Z"/>
    <g>
      <path class="cls-18" d="M171.33,325.89h-2.24c-1.39-3.55-4.84-6.07-8.88-6.07s-7.49,2.52-8.88,6.07h-45.05c-4.54,0-8.23,3.68-8.23,8.23v12.67c0,4.54,3.68,8.23,8.23,8.23h65.05c4.54,0,8.23-3.68,8.23-8.23v-12.67c0-4.54-3.68-8.23-8.23-8.23Z"/>
      <rect class="cls-6" x="105.66" y="359.93" width="66.29" height="12.84" rx="5.59" ry="5.59"/>
      <rect class="cls-10" x="88.97" y="355.01" width="99.68" height="9.82" rx="2.8" ry="2.8"/>
      <path class="cls-6" d="M98.12,363.96c-1.65,0-2.99,1.99-2.99,4.45v21.31h5.99v-21.31c0-2.46-1.34-4.45-2.99-4.45Z"/>
      <path class="cls-6" d="M165.6,364.84c-1.07,0-1.93,1.92-1.93,4.29v20.58h3.87v-20.58c0-2.37-.87-4.29-1.93-4.29Z"/>
      <path class="cls-6" d="M112.03,364.84c-1.07,0-1.93,1.92-1.93,4.29v20.58h3.87v-20.58c0-2.37-.87-4.29-1.93-4.29Z"/>
      <path class="cls-6" d="M181.1,382.3h0s-.03,0-.03,0c-.04,0-.07-.02-.1-.03-.04,0-.07,0-.11,0l-15.38-2.74s-.07-.02-.1-.03c-.81-.14-1.56.36-1.68,1.12-.12.76.44,1.5,1.25,1.64.04,0,.07,0,.11,0l15.38,2.74s.07.02.1.03c.04,0,.07,0,.11,0h.03s0,0,0,0c.75.07,1.43-.41,1.54-1.13.11-.72-.38-1.4-1.11-1.6Z"/>
      <path class="cls-6" d="M112.86,382.2h0s-.03,0-.03,0c-.04,0-.07.02-.11.03-.04,0-.07,0-.11,0l-15.65,2.74s-.07.02-.11.03c-.82.14-1.59-.36-1.71-1.12-.12-.76.45-1.5,1.27-1.64.04,0,.07,0,.11,0l15.65-2.74s.07-.02.11-.03c.04,0,.07,0,.11,0h.03s0,0,0,0c.77-.07,1.45.41,1.56,1.13.11.72-.39,1.4-1.13,1.6Z"/>
      <rect class="cls-6" x="113.96" y="379.46" width="49.71" height="2.79"/>
    </g>
  </g>
  <rect class="cls-16" x="0" width="277.62" height="96.97"/>
  <g>
    <rect class="cls-14" x="40.44" y="22.57" width="194.92" height="62.5" rx="22.28" ry="22.28"/>
    <text class="cls-17" transform="translate(51.9 65.82) scale(1.52 1)"><tspan x="0" y="0">加法混色</tspan></text>
  </g>
  <rect class="cls-15" x="19.27" width="1.91" height="96.46"/>
  <rect class="cls-15" x="256.45" y=".51" width="1.91" height="96.46"/>
  <rect class="cls-15" x="38.53" y=".25" width="1.91" height="96.46"/>
  <rect class="cls-15" x="236.23" y=".51" width="1.91" height="96.46"/>
  <g>
    <rect class="cls-8" x="34.03" y="134.97" width="214.26" height="143.23"/>
    <g>
      <path class="cls-9" d="M141.17,172.61c5.72-2.18,11.92-3.39,18.41-3.39,12.35,0,23.69,4.34,32.58,11.58-3.92-24.63-25.25-43.47-50.99-43.47s-47.07,18.83-50.99,43.47c8.89-7.24,20.22-11.58,32.58-11.58,6.49,0,12.69,1.21,18.41,3.39Z"/>
      <path class="cls-13" d="M192.15,180.79c.42,2.66.65,5.39.65,8.17,0,16.16-7.43,30.59-19.06,40.06-2.93,18.42-15.6,33.59-32.58,40.07,5.72,2.18,11.92,3.39,18.41,3.39,28.52,0,51.63-23.12,51.63-51.63,0-16.16-7.43-30.59-19.06-40.06Z"/>
      <path class="cls-5" d="M141.17,172.61c19.42,7.42,33.23,26.21,33.23,48.24,0,2.78-.23,5.51-.65,8.17,11.63-9.47,19.06-23.89,19.06-40.06,0-2.78-.23-5.51-.65-8.17-8.89-7.24-20.22-11.58-32.58-11.58-6.49,0-12.69,1.21-18.41,3.39Z"/>
      <path class="cls-3" d="M108.59,229.02c-11.63-9.47-19.06-23.89-19.06-40.06,0-2.78.23-5.51.65-8.17-11.63,9.47-19.06,23.89-19.06,40.06,0,28.52,23.12,51.63,51.63,51.63,6.49,0,12.69-1.21,18.41-3.39-16.97-6.48-29.65-21.65-32.58-40.07Z"/>
      <path class="cls-7" d="M108.59,229.02c-.42-2.66-.65-5.39-.65-8.17,0-22.03,13.8-40.83,33.23-48.24-5.72-2.18-11.92-3.39-18.41-3.39-12.35,0-23.69,4.34-32.58,11.58-.42,2.66-.65,5.39-.65,8.17,0,16.16,7.43,30.59,19.06,40.06Z"/>
      <path class="cls-11" d="M173.74,229.02c-8.89,7.24-20.22,11.58-32.58,11.58s-23.69-4.34-32.58-11.58c2.93,18.42,15.6,33.59,32.58,40.07,16.97-6.48,29.65-21.65,32.58-40.07Z"/>
      <path class="cls-14" d="M141.17,172.61c-19.42,7.42-33.23,26.21-33.23,48.24,0,2.78.23,5.51.65,8.17,8.89,7.24,20.22,11.58,32.58,11.58s23.69-4.34,32.58-11.58c.42-2.66.65-5.39.65-8.17,0-22.03-13.8-40.83-33.23-48.24Z"/>
    </g>
    <rect class="cls-1" x="34.03" y="116.77" width="214.26" height="18.2"/>
    <rect class="cls-1" x="34.03" y="278.21" width="214.26" height="4.48"/>
  </g>
</svg>