<?xml version="1.0" encoding="UTF-8"?>
<svg id="_レイヤー_1" data-name="レイヤー 1" xmlns="http://www.w3.org/2000/svg" xmlns:xlink="http://www.w3.org/1999/xlink" viewBox="0 0 279.2 389.72">
  <defs>
    <style>
      .cls-1, .cls-2, .cls-3, .cls-4, .cls-5, .cls-6, .cls-7, .cls-8, .cls-9, .cls-10, .cls-11, .cls-12, .cls-13 {
        stroke-width: 0px;
      }

      .cls-1, .cls-14, .cls-15, .cls-16 {
        fill: #231815;
      }

      .cls-2 {
        fill: #c30d23;
      }

      .cls-17 {
        clip-path: url(#clippath);
      }

      .cls-3, .cls-18 {
        fill: none;
      }

      .cls-4 {
        fill: url(#_名称未設定グラデーション_56);
      }

      .cls-5 {
        fill: #faed00;
      }

      .cls-6 {
        fill: #f7b52c;
      }

      .cls-7 {
        fill: #f29600;
      }

      .cls-14, .cls-18, .cls-19 {
        stroke: #231815;
        stroke-miterlimit: 10;
      }

      .cls-8 {
        fill: #e95513;
      }

      .cls-9 {
        fill: #5f1985;
      }

      .cls-20 {
        font-size: 9.72px;
        glyph-orientation-vertical: 0deg;
        text-orientation: upright;
        writing-mode: tb;
      }

      .cls-20, .cls-15 {
        font-family: KozGoPr6N-Regular-83pv-RKSJ-H, 'Kozuka Gothic Pr6N';
      }

      .cls-20, .cls-12, .cls-19 {
        fill: #fff;
      }

      .cls-10 {
        fill: #009fe8;
      }

      .cls-15 {
        font-size: 4.26px;
      }

      .cls-11 {
        fill: #1d2087;
      }

      .cls-16 {
        font-family: HiraKakuStd-W8-83pv-RKSJ-H, 'Hiragino Kaku Gothic Std';
        font-size: 28.61px;
      }

      .cls-13 {
        fill: #1eaa39;
      }
    </style>
    <linearGradient id="_名称未設定グラデーション_56" data-name="名称未設定グラデーション 56" x1="3140.72" y1="2014.38" x2="3289.3" y2="2014.38" gradientTransform="translate(-3143.83 -1737.23)" gradientUnits="userSpaceOnUse">
      <stop offset=".06" stop-color="#462862"/>
      <stop offset=".09" stop-color="#32367b"/>
      <stop offset=".13" stop-color="#23408d"/>
      <stop offset=".17" stop-color="#1a4699"/>
      <stop offset=".21" stop-color="#18499d"/>
      <stop offset=".34" stop-color="#53bfd5"/>
      <stop offset=".53" stop-color="#6cb82d"/>
      <stop offset=".67" stop-color="#e5e65a"/>
      <stop offset=".79" stop-color="#f3a716"/>
      <stop offset=".91" stop-color="#e7341e"/>
    </linearGradient>
    <clipPath id="clippath">
      <path class="cls-3" d="M246.61,280.36l14.33,37.46-36.81-5.15c.36-3.55,1.59-11.32,6.8-19.06,5.6-8.33,12.66-11.93,15.68-13.25Z"/>
    </clipPath>
  </defs>
  <rect class="cls-10" width="279.2" height="252.79"/>
  <rect class="cls-13" y="253.1" width="279.2" height="136.62"/>
  <g>
    <ellipse class="cls-7" cx="59.02" cy="103.2" rx="8.06" ry="7.95"/>
    <polygon class="cls-7" points="59.02 85.55 63.41 93.06 54.63 93.06 59.02 85.55"/>
    <polygon class="cls-7" points="41.12 103.2 48.73 98.87 48.73 107.53 41.12 103.2"/>
    <polygon class="cls-7" points="59.02 120.87 54.63 113.36 63.41 113.36 59.02 120.87"/>
    <polygon class="cls-7" points="76.92 103.2 69.31 107.53 69.31 98.87 76.92 103.2"/>
    <polygon class="cls-7" points="70.53 91.87 69 98.66 63.64 93.37 70.53 91.87"/>
    <polygon class="cls-7" points="47.52 114.53 49.04 107.74 54.4 113.03 47.52 114.53"/>
    <polygon class="cls-7" points="70.5 114.53 63.61 113.03 68.97 107.74 70.5 114.53"/>
    <polygon class="cls-7" points="47.53 91.86 54.42 93.36 49.05 98.65 47.53 91.86"/>
  </g>
  <g>
    <path class="cls-10" d="M109.15,214.2c4.64-29.51,30.56-51.52,60.74-51.66,30.39-.14,56.64,21.94,61.31,51.66h-3.95c-4.69-27.54-29.15-47.84-57.36-47.7-28.01.13-52.14,20.37-56.8,47.7h-3.95Z"/>
    <path class="cls-11" d="M113.09,214.2c4.65-27.33,28.79-47.57,56.8-47.7,28.21-.14,52.67,20.17,57.36,47.7h-3.95c-4.64-25.41-27.33-44.01-53.41-43.87-25.88.13-48.25,18.67-52.86,43.87h-3.95Z"/>
    <path class="cls-9" d="M117.04,214.2c4.61-25.21,26.98-43.74,52.86-43.87,26.08-.13,48.77,18.47,53.41,43.87h-3.95c-4.63-23.25-25.53-40.11-49.46-39.98-23.73.13-44.32,16.93-48.91,39.98h-3.95Z"/>
    <path class="cls-13" d="M105.2,214.2c4.65-31.66,32.36-55.41,64.69-55.55,32.54-.14,60.58,23.69,65.25,55.55h-3.95c-4.67-29.72-30.92-51.8-61.31-51.66-30.18.14-56.11,22.15-60.74,51.66h-3.95Z"/>
    <path class="cls-5" d="M101.25,214.2c4.65-33.81,34.16-59.31,68.66-59.44,34.7-.13,64.51,25.44,69.19,59.44h-3.95c-4.68-31.86-32.71-55.69-65.25-55.55-32.33.14-60.05,23.89-64.69,55.55h-3.95Z"/>
    <path class="cls-8" d="M97.31,214.2c4.56-35.98,35.88-63.28,72.6-63.33,36.81-.06,68.26,27.28,72.83,63.33h-3.64c-4.68-34.01-34.49-59.57-69.19-59.44-34.5.13-64,25.63-68.66,59.44h-3.95Z"/>
    <path class="cls-2" d="M93.36,214.2c4.52-38.1,37.63-67.16,76.53-67.16s72.02,29.05,76.53,67.16h-3.69c-4.57-36.06-36.02-63.39-72.83-63.33-36.72.06-68.04,27.36-72.6,63.33h-3.95Z"/>
  </g>
  <path class="cls-19" d="M252,216.37c0-6.03-5.67-10.92-12.67-10.92-.26,0-.51,0-.77.02-2.32-2.35-5.78-3.85-9.65-3.85-4.72,0-8.84,2.23-11.02,5.53-6.58.39-11.78,5.12-11.78,10.89,0,5.05,3.97,9.29,9.36,10.54,2.13,3.45,6.34,5.79,11.19,5.79,2.31,0,4.47-.53,6.33-1.46,1.86.93,4.03,1.46,6.33,1.46,7,0,12.67-4.89,12.67-10.92,0-1.24-.24-2.43-.69-3.55.44-1.11.69-2.31.69-3.55Z"/>
  <path class="cls-19" d="M231.79,129.7c0-6.03-5.67-10.92-12.67-10.92-.26,0-.51,0-.77.02-2.32-2.35-5.78-3.85-9.65-3.85-4.72,0-8.84,2.23-11.02,5.53-6.58.39-11.78,5.12-11.78,10.89,0,5.05,3.97,9.29,9.36,10.54,2.13,3.45,6.34,5.79,11.19,5.79,2.31,0,4.47-.53,6.33-1.46,1.86.93,4.03,1.46,6.33,1.46,7,0,12.67-4.89,12.67-10.92,0-1.24-.24-2.43-.69-3.55.44-1.11.69-2.31.69-3.55Z"/>
  <path class="cls-19" d="M63.21,175.07c0-6.03-5.67-10.92-12.67-10.92-.26,0-.51,0-.77.02-2.32-2.35-5.78-3.85-9.65-3.85-4.72,0-8.84,2.23-11.02,5.53-6.58.39-11.78,5.12-11.78,10.89,0,5.05,3.97,9.29,9.36,10.54,2.13,3.45,6.34,5.79,11.19,5.79,2.31,0,4.47-.53,6.33-1.46,1.86.93,4.03,1.46,6.33,1.46,7,0,12.67-4.89,12.67-10.92,0-1.24-.24-2.43-.69-3.55.44-1.11.69-2.31.69-3.55Z"/>
  <path class="cls-19" d="M208.84,113.32c0-6.03-5.67-10.92-12.67-10.92-.26,0-.51,0-.77.02-2.32-2.35-5.78-3.85-9.65-3.85-4.72,0-8.84,2.23-11.02,5.53-6.58.39-11.78,5.12-11.78,10.89,0,5.05,3.97,9.29,9.36,10.54,2.13,3.45,6.34,5.79,11.19,5.79,2.31,0,4.47-.53,6.33-1.46,1.86.93,4.03,1.46,6.33,1.46,7,0,12.67-4.89,12.67-10.92,0-1.24-.24-2.43-.69-3.55.44-1.11.69-2.31.69-3.55Z"/>
  <path class="cls-19" d="M128.46,210.43c0-6.03-5.67-10.92-12.67-10.92-.26,0-.51,0-.77.02-2.32-2.35-5.78-3.85-9.65-3.85-4.72,0-8.84,2.23-11.02,5.53-6.58.39-11.78,5.12-11.78,10.89,0,5.05,3.97,9.29,9.36,10.54,2.13,3.45,6.34,5.79,11.19,5.79,2.31,0,4.47-.53,6.33-1.46,1.86.93,4.03,1.46,6.33,1.46,7,0,12.67-4.89,12.67-10.92,0-1.24-.24-2.43-.69-3.55.44-1.11.69-2.31.69-3.55Z"/>
  <ellipse class="cls-18" cx="151.64" cy="163.07" rx="11.32" ry="13.64"/>
  <line class="cls-19" x1="146.57" y1="150.58" x2="58.13" y2="191.26"/>
  <line class="cls-19" x1="162.96" y1="165.22" x2="134.52" y2="301.42"/>
  <g>
    <ellipse class="cls-19" cx="73.02" cy="275.85" rx="64.34" ry="86.94"/>
    <g>
      <g>
        <rect class="cls-4" x="-3.11" y="260.3" width="148.58" height="33.69" transform="translate(-205.96 348.33) rotate(-90)"/>
        <text class="cls-20" transform="translate(71.18 210.25) scale(1 .99)"><tspan x="0" y="0">赤　橙　黄　緑　水色　青　紫</tspan></text>
      </g>
      <text class="cls-15" transform="translate(38.11 213.13) scale(1.01 1)"><tspan x="0" y="0">700nm</tspan><tspan x="0" y="22.39">650nm</tspan><tspan x="0" y="44.78">600nm</tspan><tspan x="0" y="67.17">550nm</tspan><tspan x="0" y="89.56">500nm</tspan><tspan x="0" y="111.95">450nm</tspan><tspan x="0" y="134.34">400nm</tspan></text>
      <text class="cls-15" transform="translate(94.47 275.34) scale(1.01 1)"><tspan x="0" y="0">波長</tspan></text>
      <text class="cls-15" transform="translate(95.3 207.61) scale(1.01 1)"><tspan x="0" y="0">長い</tspan></text>
      <text class="cls-15" transform="translate(94.47 345.86) scale(1.01 1)"><tspan x="0" y="0">短い</tspan></text>
      <g>
        <rect class="cls-1" x="97.24" y="215.17" width="1.71" height="49.98"/>
        <polygon class="cls-1" points="98.09 212.13 100.88 216.89 95.31 216.89 98.09 212.13"/>
      </g>
      <g>
        <rect class="cls-1" x="97.24" y="282.89" width="1.71" height="49.98" transform="translate(196.18 615.77) rotate(180)"/>
        <polygon class="cls-1" points="98.09 335.91 95.31 331.16 100.88 331.16 98.09 335.91"/>
      </g>
    </g>
  </g>
  <polygon class="cls-6" points="104.38 141.91 101.23 145.32 72.56 119.63 75.71 116.22 104.38 141.91"/>
  <polygon class="cls-6" points="89.44 149.16 85.63 151.84 66.3 125.06 70.11 122.38 89.44 149.16"/>
  <polygon class="cls-6" points="110.09 126.85 107.61 130.77 79.33 113.36 81.81 109.45 110.09 126.85"/>
  <g>
    <path class="cls-12" d="M261.66,318.42c-12.51-1.92-25.02-3.83-37.53-5.75,5.96-3.61,11.92-7.22,17.88-10.83,1.53-7.16,3.07-14.32,4.6-21.49,5.02,12.69,10.03,25.37,15.05,38.06Z"/>
    <g>
      <g>
        <g class="cls-17">
          <path class="cls-14" d="M218.63,282.37c-6.86,9.87-7.19,22.23-.74,27.61s17.26,1.74,24.12-8.13c6.86-9.87,7.19-22.23.74-27.61-6.46-5.38-17.26-1.74-24.12,8.13Z"/>
        </g>
        <path class="cls-18" d="M246.61,280.36l14.33,37.46-36.81-5.15c.36-3.55,1.59-11.32,6.8-19.06,5.6-8.33,12.66-11.93,15.68-13.25Z"/>
      </g>
      <ellipse class="cls-12" cx="239.22" cy="287.84" rx="4.45" ry="1.82" transform="translate(-134.83 274.96) rotate(-48.3)"/>
      <polygon class="cls-1" points="247.77 282.86 248.16 283.87 256.17 280.2 255.78 279.19 247.77 282.86"/>
      <polygon class="cls-1" points="248.83 285.63 249.22 286.64 256.46 283.32 256.07 282.32 248.83 285.63"/>
      <polygon class="cls-1" points="246.57 280.16 246.95 281.17 256.26 276.9 255.87 275.9 246.57 280.16"/>
    </g>
  </g>
  <g>
    <rect class="cls-12" x="42.31" y="22.13" width="196.03" height="62.86" rx="22.28" ry="22.28"/>
    <text class="cls-16" transform="translate(50.23 65.62) scale(1.52 1)"><tspan x="0" y="0">可視光線</tspan></text>
  </g>
</svg>