<?xml version="1.0" encoding="UTF-8"?>
<svg id="_レイヤー_1" data-name="レイヤー 1" xmlns="http://www.w3.org/2000/svg" xmlns:xlink="http://www.w3.org/1999/xlink" viewBox="0 0 278.41 390.17">
  <defs>
    <style>
      .cls-1 {
        fill: #0dac67;
      }

      .cls-1, .cls-2, .cls-3, .cls-4, .cls-5, .cls-6, .cls-7, .cls-8, .cls-9, .cls-10, .cls-11, .cls-12, .cls-13, .cls-14, .cls-15, .cls-16, .cls-17, .cls-18 {
        stroke-width: 0px;
      }

      .cls-19 {
        clip-path: url(#clippath);
      }

      .cls-2 {
        fill: none;
      }

      .cls-3 {
        fill: #009844;
      }

      .cls-4 {
        fill: #c79f62;
      }

      .cls-5 {
        fill: #e3007f;
      }

      .cls-6 {
        fill: #c8c9ca;
      }

      .cls-7 {
        fill: #fff000;
      }

      .cls-8 {
        fill: #eeeeef;
      }

      .cls-9 {
        fill: #000;
      }

      .cls-10 {
        opacity: .1;
      }

      .cls-10, .cls-15 {
        fill: #c8bb9b;
      }

      .cls-11 {
        fill: #e50012;
      }

      .cls-12 {
        fill: #b28146;
      }

      .cls-13 {
        fill: #009fe8;
      }

      .cls-14 {
        fill: #006934;
      }

      .cls-16 {
        fill: #1d2087;
      }

      .cls-20 {
        fill: #231815;
        font-family: HiraKakuStd-W8-83pv-RKSJ-H, 'Hiragino Kaku Gothic Std';
        font-size: 28.5px;
      }

      .cls-17, .cls-21 {
        fill: #fff;
      }

      .cls-18 {
        fill: #946134;
      }

      .cls-21 {
        stroke: #231815;
        stroke-miterlimit: 10;
      }
    </style>
    <clipPath id="clippath">
      <rect class="cls-2" x="70.78" y="131.33" width="136.43" height="160.13"/>
    </clipPath>
  </defs>
  <rect class="cls-15" x=".21" y="279.62" width="277.99" height="110.55"/>
  <rect class="cls-10" y=".91" width="277.99" height="388.81"/>
  <rect class="cls-8" width="278.3" height="82.68"/>
  <g>
    <rect class="cls-17" x="41.84" y="12.08" width="195.16" height="62.58" rx="22.28" ry="22.28"/>
    <text class="cls-20" transform="translate(53.3 55.37) scale(1.52 1)"><tspan x="0" y="0">減法混色</tspan></text>
  </g>
  <rect class="cls-15" x="235.47" y="227.79" width="22.04" height="12.97" rx="3.76" ry="3.76"/>
  <rect class="cls-15" x="213.43" y="227.79" width="22.04" height="12.97" rx="3.76" ry="3.76"/>
  <rect class="cls-6" x="53.97" y="122.67" width="224.44" height="108.94"/>
  <rect class="cls-6" y="145.13" width="53.97" height="82.66"/>
  <rect class="cls-14" x="60.81" y="127.54" width="217.6" height="99.19"/>
  <g>
    <g>
      <rect class="cls-18" x="131.82" y="82.68" width="14.35" height="290.23"/>
      <rect class="cls-4" x="106.1" y="118.71" width="65.79" height="192.02" rx="9.31" ry="9.31"/>
      <path class="cls-12" d="M224.45,290.67H53.54c5.4-1.32,10.81-2.64,16.21-3.96,46.35-.11,92.7-.23,139.06-.34,5.21,1.43,10.43,2.87,15.64,4.3Z"/>
      <path class="cls-4" d="M214.06,338.67H64.55c.49-3.72.99-7.44,1.48-11.16,48.84.08,97.69.16,146.53.24.5,3.64,1,7.28,1.5,10.92Z"/>
      <path class="cls-4" d="M57.69,389.72h10.53c12.46-94.3,24.93-188.61,37.39-282.91l-10.2-1.35c-12.58,94.75-25.15,189.51-37.73,284.26Z"/>
      <path class="cls-4" d="M182.51,105.48l-10.2,1.37c12.61,94.29,25.22,188.58,37.83,282.87h10.63c-12.75-94.75-25.51-189.49-38.26-284.24Z"/>
      <rect class="cls-12" x="53.54" y="290.67" width="170.91" height="7.93"/>
      <rect class="cls-21" x="70.78" y="131.33" width="136.43" height="160.13"/>
    </g>
    <g class="cls-19">
      <g>
        <path class="cls-7" d="M95.21,267.02c-12.44,0-24.13-3.21-34.29-8.84l-53.74,53.74,58.47,58.47,67.52-67.52-9.34-41.89c-8.75,3.86-18.43,6.03-28.61,6.03Z"/>
        <polygon class="cls-7" points="295.76 140.28 237.29 81.81 188.61 130.49 209.94 226.11 295.76 140.28"/>
        <path class="cls-5" d="M93.54,125.19c-38.4.89-69.26,32.28-69.26,70.89,0,26.74,14.8,50.01,36.64,62.1l50.92-50.92-18.3-82.07Z"/>
        <path class="cls-11" d="M123.82,260.99l-11.98-53.73-50.92,50.92c10.16,5.63,21.85,8.84,34.29,8.84,10.18,0,19.86-2.16,28.61-6.03Z"/>
        <path class="cls-13" d="M209.94,226.11l-76.77,76.77,11.58,51.9c1.19,9.96,5.47,19.87,12.89,28.14,18.02,20.05,47.67,22.8,66.23,6.12,13.42-12.06,17.35-30.97,11.68-48.11l-25.61-114.82Z"/>
        <path class="cls-13" d="M157.31,161.79l31.3-31.3-13.91-62.38c-1.19-9.96-5.47-19.87-12.89-28.14-18.02-20.05-47.67-22.8-66.23-6.12-13.42,12.06-17.35,30.97-11.68,48.11l9.64,43.23c.56-.01,1.11-.04,1.68-.04,26.74,0,50.01,14.8,62.1,36.64Z"/>
        <path class="cls-3" d="M188.61,130.49l-31.3,31.3c5.63,10.16,8.84,21.85,8.84,34.29,0,28.99-17.4,53.9-42.32,64.91l9.34,41.89,76.77-76.77-21.33-95.62Z"/>
        <path class="cls-16" d="M157.31,161.79c-12.09-21.85-35.36-36.64-62.1-36.64-.56,0-1.12.03-1.68.04l18.3,82.07,45.47-45.47Z"/>
        <path class="cls-9" d="M123.82,260.99c24.92-11,42.32-35.91,42.32-64.91,0-12.44-3.21-24.13-8.84-34.29l-45.47,45.47,11.98,53.73Z"/>
      </g>
    </g>
  </g>
  <rect class="cls-1" y="149.83" width="50.03" height="73.26"/>
</svg>