<?xml version="1.0" encoding="UTF-8"?>
<svg id="_レイヤー_1" data-name="レイヤー 1" xmlns="http://www.w3.org/2000/svg" xmlns:xlink="http://www.w3.org/1999/xlink" viewBox="0 0 243.41 243.41">
  <defs>
    <style>
      .cls-1 {
        clip-path: url(#clippath);
      }

      .cls-2 {
        stroke-width: 0px;
      }

      .cls-2, .cls-3 {
        fill: none;
      }

      .cls-4 {
        fill: #231815;
      }

      .cls-4, .cls-3, .cls-5 {
        stroke: #231815;
        stroke-miterlimit: 10;
      }

      .cls-5 {
        fill: #fff;
      }
    </style>
    <clipPath id="clippath">
      <rect class="cls-2" x=".5" y=".5" width="242.41" height="242.41" rx="22.39" ry="22.39"/>
    </clipPath>
  </defs>
  <g class="cls-1">
    <path class="cls-4" d="M147.12,1.07s-4.52,5.75-3.55,12.97l-2.1,6.73s-12.58,14.78-4.19,23.31c0,0,8.06,14.94,9.84,16.09l-1.45,10.51s2.9,18.72,1.45,23.64c0,0-24.19,21.18-20.64,32.34l7.9,37.1s1.94,11.82,16.29,11.98c0,0,6.61,15.92,7.42,21.67,0,0,4.35,16.42-9.19,16.25,0,0-12.26,1.81-15.32-14.12,0,0-4.03-4.1-6.45-2.63s-4.37,32.83,15.32,37.76c0,0,41.29,5.25,42.26-31.19v-30.54l4.52-.49s6.93,3.94,10.48-1.64c0,0,3.23-8.04,3.06-11.82,0,0,20.48-26.43,11.93-36.45,0,0-2.58-3.94,0-17.07,0,0,2.1-23.8-7.42-42.36,0,0,1.61-18.72-17.58-29.39l-4.19-4.27s7.1-8.7,3.23-11.49c0,0-3.55-1.15-7.74.82h-3.87l-2.26-.82-2.9.82-9.68-2.63-7.42-7.72s-5.92-10.47-7.74-7.39Z"/>
    <path class="cls-5" d="M83.51,11.25s4.27,13.46,3.95,14.78c-.33,1.31,3.95,1.97,4.6,6.24,0,0,13.48,7.11,6.69,21.78,0,0,4.06,1.31-2.19,7.11,0,0-1.75,4.38-1.75,4.71s1.75,6.13.66,8.65c0,0,1.53,1.09,1.32,3.17l-.77,23.31s25.65,24.63,15.35,54.94c0,0,1.53,20.69-15.24,21.12,0,0-8.33,34.8,11.51,32.62,0,0,6.47,1.31,10.52-8.87,0,0,3.22-5.14,7.42-3.61,4.2,1.53,7.27,22-3.91,29.44,0,0-9.87,9.96-31.9,3.28,0,0-30.03-15.54-30.69-34.48,0,0,0-7.33,2.3-9.19,0,0-21.48,4.27-21.37-14.56l-13.04-21.34s-2.08-18.72,4.49-26.49c0,0-8.55-18.61,8.99-48.92,0,0-2.63-12.48,8.88-25.94l-6.25-8.43s1.64-2.3,4.93-2.52c0,0,4.93.44,7.23.44,0,0,1.42-1.53,6.69-1.31l8.77-5.91c3.24-3.4,4.95-6.51,5.92-8.76,1.01-2.34,1.62-4.7,3.73-7.66,1.18-1.66,2.36-2.86,3.18-3.61Z"/>
  </g>
  <rect class="cls-3" x=".5" y=".5" width="242.41" height="242.41" rx="22.39" ry="22.39"/>
</svg>